inDegrees=no
num_controls=7
num_derivatives=13
num_iterations=164
num_multipliers=7
num_parameters=0
num_slacks=7
num_states=26
objective=5.308553
objective_accelerations=0.424283
objective_balance=0.006905
objective_effort=0.378389
objective_height=4.423874
objective_ligament=0.075102
solver_duration=1364.940191
status=Solve_Succeeded
success=true
DataType=double
version=3
OpenSimVersion=4.4-2022-07-23-0e9fedc
endheader
time	/jointset/ground_pelvis/pelvis_tilt/value	/jointset/ground_pelvis/pelvis_tx/value	/jointset/ground_pelvis/pelvis_ty/value	/jointset/hip_r/hip_flexion_r/value	/jointset/hip_r/hip_adduction_r/value	/jointset/hip_r/hip_rotation_r/value	/jointset/back/lumbar_extension/value	/jointset/patellofemoral_r/patellar_flexion_r/value	/jointset/knee_r/knee_flexion_r/value	/jointset/knee_r/knee_adduction_r/value	/jointset/knee_r/knee_rotation_r/value	/jointset/ankle_r/ankle_angle_r/value	/jointset/subtalar_r/subtalar_angle_r/value	/jointset/ground_pelvis/pelvis_tilt/speed	/jointset/ground_pelvis/pelvis_tx/speed	/jointset/ground_pelvis/pelvis_ty/speed	/jointset/hip_r/hip_flexion_r/speed	/jointset/hip_r/hip_adduction_r/speed	/jointset/hip_r/hip_rotation_r/speed	/jointset/back/lumbar_extension/speed	/jointset/patellofemoral_r/patellar_flexion_r/speed	/jointset/knee_r/knee_flexion_r/speed	/jointset/knee_r/knee_adduction_r/speed	/jointset/knee_r/knee_rotation_r/speed	/jointset/ankle_r/ankle_angle_r/speed	/jointset/subtalar_r/subtalar_angle_r/speed	/forceset/tau_hip_flexion_r	/forceset/tau_hip_adduction_r	/forceset/tau_hip_rotation_r	/forceset/tau_knee_flexion_r	/forceset/tau_ankle_angle_r	/forceset/tau_subtalar_angle_r	/forceset/tau_lumbar_extension	lambda_cid13_p0	lambda_cid14_p0	lambda_cid14_p1	lambda_cid14_p2	lambda_cid14_p3	lambda_cid14_p4	lambda_cid14_p5	/jointset/ground_pelvis/pelvis_tilt/accel	/jointset/ground_pelvis/pelvis_tx/accel	/jointset/ground_pelvis/pelvis_ty/accel	/jointset/hip_r/hip_flexion_r/accel	/jointset/hip_r/hip_adduction_r/accel	/jointset/hip_r/hip_rotation_r/accel	/jointset/back/lumbar_extension/accel	/jointset/patellofemoral_r/patellar_flexion_r/accel	/jointset/knee_r/knee_flexion_r/accel	/jointset/knee_r/knee_adduction_r/accel	/jointset/knee_r/knee_rotation_r/accel	/jointset/ankle_r/ankle_angle_r/accel	/jointset/subtalar_r/subtalar_angle_r/accel	gamma_cid13_p0	gamma_cid14_p0	gamma_cid14_p1	gamma_cid14_p2	gamma_cid14_p3	gamma_cid14_p4	gamma_cid14_p5
0	-0.005415169885584896	0.1307601182933208	0.9336010280479162	0.1934208783645156	-0.2256475714594115	-0.242881352847661	-0.2903791543005566	0.2311793314021042	0.2311793314021609	0.1268284486293139	0.17300768073567	0.08934340440958972	0.06703124511436451	0	0	0	0	0	0	0	0	0	0	0	0	0	0.096839273093102	-0.07188743211457523	0.001851873559107675	-0.2444424565636698	0.1298777788216264	-0.07302974139162965	-0.0156774057126891	-29.91125820413373	-3.904104625466032	-27.4169498093048	-0.8993502393376881	-7.359080089567059	-615.7648860727261	56.5690793080771	-0.9816969741030844	-1.359662763555895	-0.6895344643505381	7.522170759188098	-0.2566057565394245	2.173548920362423	-5.756773197580179	8.723285930590475	8.723285930590507	-1.720659882037233	0.212315410971037	2.657236123600581	0.4309401639629043	3.137939028927896e-08	1.044855605205428e-08	-2.493048317683774e-07	1.392904778535111e-07	1.626974196284981e-08	7.405890439082148e-08	-1.933019464218805e-07
0.01	-0.005459587758072526	0.1306929631064916	0.9335675320386703	0.1937865085426664	-0.2256593210948651	-0.2427717356267531	-0.2906679508966006	0.231606984812832	0.2316069848128555	0.1267426040249412	0.1730145946460299	0.08947378239488893	0.06705338607598595	-0.008842269271273528	-0.01336853138489135	-0.006679716243690459	0.07279072553073415	-0.002368867983311738	0.02184555188491521	-0.05741035767616878	0.08515213088596743	0.08515213088596754	-0.01701833538205059	0.001369192584249241	0.02595309530752455	0.004370189217913938	0.09297124645062424	-0.07646992112204194	0.002248707556687816	-0.24015153609559	0.1228389605996825	-0.06686798760431323	-0.01230000066652546	-29.91574912461492	-5.891253700809254	-24.91645222114255	-1.494901723684355	-6.612183148321725	-617.1557104970849	61.39911493217574	-0.8292971521499818	-1.316069172091144	-0.6542525519246212	7.107226804341843	-0.2298796759380171	2.178405115388005	-5.680822824584592	8.354387702743509	8.354387702743612	-1.669858848926266	0.09721160121667954	2.545975890323044	0.4313351806648517	4.145938132710738e-08	1.125834154223634e-09	-3.229271056258041e-07	1.535636851247956e-07	3.131759494113649e-08	-1.024834095565439e-08	-2.305603364110049e-07
0.02	-0.0055911893729375	0.1304939984365897	0.9334678263974791	0.1948699866470169	-0.2256953298815286	-0.2424459935284322	-0.2915203822237888	0.2328748017394078	0.2328748017394254	0.1264910883701813	0.1730347985661611	0.08986001726446383	0.06711748430577787	-0.01743674848313556	-0.02636189661453848	-0.01324192638904198	0.143569585234523	-0.004851830235056454	0.04322497548311706	-0.1127269462304597	0.1680327031776763	0.1680327031776777	-0.03313421006959249	0.002658001931058976	0.05117137685484675	0.008391453634202833	0.08910321980817776	-0.08105241012948294	0.002645541554800978	-0.2358606156275149	0.1158001423777471	-0.06070623381696999	-0.008922595620366411	-29.9288483066335	-7.811492367112392	-22.41855154392449	-2.073689828002244	-5.87018146495646	-617.49939642816	66.02356136686819	-0.9321389622218565	-1.284629532506058	-0.666033244682803	7.119797593798863	-0.2794246102259565	2.080323263019765	-5.338019373205236	8.268974211738536	8.268974211738788	-1.540167743135603	0.1962387634829733	2.51027337156119	0.3611552036382882	5.15393723649358e-08	-8.196887743607014e-09	-3.965493794832307e-07	1.678368923960803e-07	4.636544791942317e-08	-9.455558630213026e-08	-2.678187264001293e-07
0.03	-0.005807842325006412	0.130167117847437	0.9333028884081616	0.1966514114748692	-0.2257567861312868	-0.2419091262630259	-0.292914999338949	0.2349600965379395	0.2349600965379896	0.1260831560473106	0.1730677277752249	0.09049485612225233	0.06722003070014744	-0.02585864294899961	-0.03893690056239341	-0.01974054996941133	0.2123665787585239	-0.007448353447953921	0.06406693712524547	-0.1658272140595259	0.2486360851135299	0.2486360851135322	-0.04830477435318928	0.00389786599083381	0.07568563653717394	0.01207612384456401	0.08505179914469961	-0.07726036969378877	0.002958317015301581	-0.2324816734067058	0.1118828144753327	-0.06119064907189466	-0.005367886668200685	-29.9500066226026	-9.117050033803494	-22.8406139431316	-2.025720527462699	-5.510154069031846	-618.1570362744973	64.435587892309	-0.7919320736522176	-1.232328391287865	-0.6410279408579973	6.707330496726607	-0.2511284170180655	2.073941278950524	-5.24064107820468	7.897484122709947	7.897484122710054	-1.483424611107432	0.08340050448526341	2.405395613819576	0.365825593645335	5.534605322339533e-08	-1.790223300245276e-08	-4.255517006611425e-07	1.588801201394873e-07	5.696947209137962e-08	-1.718450470828479e-07	-2.720754222120132e-07
0.04	-0.006107657698676094	0.1297168087057365	0.9330731139778125	0.1991103422909861	-0.2258444800612395	-0.2411662776483623	-0.2948295412504807	0.237839717943489	0.2378397179435064	0.1255279333135081	0.173112163680339	0.09137151624632044	0.06735816432940199	-0.03406923281035242	-0.05104760712410893	-0.02620921459537386	0.2790707828835937	-0.01009936626867782	0.08442124533303515	-0.2167119055066274	0.3268980245774253	0.3268980245774275	-0.06259229224220171	0.00495934114100711	0.09953563010955462	0.01550890061133852	0.08100037848117653	-0.07346832925814424	0.003271092475811008	-0.229102731185924	0.1079654865728855	-0.06167506432688946	-0.001813177716050094	-29.9782900492592	-10.3608655889949	-23.26616859031884	-1.960856245795341	-5.161674257018597	-617.8520692985616	62.65994509911924	-0.8898780413206585	-1.191770055277207	-0.660041453801491	6.701239714012425	-0.2903225317912076	1.982792576152084	-4.894904096812932	7.800685717346694	7.80068571734671	-1.363558464218781	0.1605609815624798	2.377420149572928	0.310776514921306	5.902338748021839e-08	-2.761546740276274e-08	-4.536340228147344e-07	1.49444379232835e-07	6.748187092712308e-08	-2.489898112745808e-07	-2.756516707212736e-07
0.05	-0.006488823330960722	0.1291476773689031	0.932778620907597	0.2022263561161809	-0.2259591043192468	-0.2402227198549366	-0.2972417383307434	0.2414905519731858	0.2414905519732019	0.1248345950496146	0.1731667949319082	0.09248333520563927	0.06752918621176301	-0.04212606221200017	-0.06270394503585164	-0.03269617717681231	0.3437897219430813	-0.01282736581257281	0.1041985152916468	-0.2653817065012565	0.4028839889433215	0.4028839889433206	-0.07593265767678536	0.005937792220530643	0.1227156649290642	0.01866227371039085	0.07668455423980168	-0.07188078391976377	0.003656261185769093	-0.2260509676469135	0.103536134396222	-0.06005501922152778	0.001891523624126489	-30.01268546399071	-11.67140302725959	-22.75925823368845	-2.079126478486518	-4.802012084454733	-617.8443817326623	62.83779704656283	-0.7579048580408795	-1.141344794147969	-0.6440907411729683	6.305882725347267	-0.2643498553988495	1.961462885264055	-4.801147495727887	7.439821098617116	7.439821098616785	-1.297925842443219	0.06215343654984484	2.271428027326252	0.3125844953667102	5.804472629655795e-08	-3.60256790595259e-08	-4.479026740820059e-07	1.249677241730523e-07	7.335264176540548e-08	-3.098089566600189e-07	-2.556995256394521e-07
